# xmcd
#
# Track frame offsets:
#	150
#	11550
#	24150
#	34500
#	47062
#	59625
#	71250
#	81225
#	97500
#	111375
#	124400
#	133625
#	141425
#	155662
#	167525
#	180825
#
# Disc length: 2572 seconds
#
# Revision: 2
# Processed by: cddbd v1.4PL0 Copyright (c) Steve Scherf et al.
# Submitted via: audiograbber 1.81.03
#
DISCID=cc0a0a10
DTITLE=Diverse - Fröhliche Alpneklänge
DYEAR=1992
DGENRE=Volksmusik
TTITLE0=Die Grainauer Buam - Trompeten-Echo
TTITLE1=Otto und Uschi Biersack and Kapelle Toni Sulzböck - Ja Dirndl, wo hast de
TTITLE1=nn dein Fensterl
TTITLE2=Blaskappele Otto Ebner - In München steht ein Hofbräuhaus
TTITLE3=Das Schrammelquartett des Berchtesgadener Bauerntheaters - Schneewalzer
TTITLE4=Rudi Knobl - Von meinen Bergen muss ich scheiden
TTITLE5=Ludwig Höllwart and Matthias Kirchgasser and Toni Mooslechner - Bergvagabun
TTITLE5=den
TTITLE6=Die fröhlichen Waldfestmusikanten and die Kapelle Jägerbuam - Beim Kronen
TTITLE6=wirt
TTITLE7=Meisterjodler Julius Zipp - Kufsteinerlied
TTITLE8=Die rotweissen Jodler mit Zither und original bayrischer Volksmusik - E
TTITLE8=rzherzog-Johann- Jodler
TTITLE9=Orchester Sepp Hufski - Amboss-Polka
TTITLE10=Die Original Bayrischen Schuhplattler mit Instrumentenbegleitung - Wat
TTITLE10=schentanz
TTITLE11=Die Ruhpoldinger Dirndl - Chiemgauer Liedl
TTITLE12=Meisterjodler Julius Zipp - Holla-Rei-I-Di-Ei-Ho
TTITLE13=D´Schweiger Buam - Schneidige Buam
TTITLE14=Otto and Uschi Biersack and die Bergwälder Musikanten - Es rauscht der Was
TTITLE14=serfall
TTITLE15=Otto and Uschi Biersack and Kapelle Toni Sulzböck - A Busserl über´n Garte
TTITLE15=nzaun
EXTD=
EXTT0=
EXTT1=
EXTT2=
EXTT3=
EXTT4=
EXTT5=
EXTT6=
EXTT7=
EXTT8=
EXTT9=
EXTT10=
EXTT11=
EXTT12=
EXTT13=
EXTT14=
EXTT15=
PLAYORDER=
